<?xml version="1.0" encoding="UTF-8" standalone="no"?>
<!-- Created with Inkscape (http://www.inkscape.org/) -->

<svg
   version="1.1"
   id="svg1"
   width="1536"
   height="1024"
   viewBox="320 140 900 680"
   sodipodi:docname="patientfinder.SVG"
   inkscape:version="1.4.2 (ebf0e940, 2025-05-08)"
   xmlns:inkscape="http://www.inkscape.org/namespaces/inkscape"
   xmlns:sodipodi="http://sodipodi.sourceforge.net/DTD/sodipodi-0.dtd"
   xmlns="http://www.w3.org/2000/svg"
   xmlns:svg="http://www.w3.org/2000/svg">
  <defs
     id="defs1">
    <linearGradient
       id="linearGradient1">
      <stop
         style="stop-color:#000000;stop-opacity:1;"
         offset="0"
         id="stop3" />
      <stop
         style="stop-color:#000000;stop-opacity:0.49803922;"
         offset="0.5"
         id="stop5" />
      <stop
         style="stop-color:#000000;stop-opacity:0;"
         offset="1"
         id="stop4" />
    </linearGradient>
  </defs>
  <sodipodi:namedview
     id="namedview1"
     pagecolor="#ffffff"
     bordercolor="#000000"
     borderopacity="0.25"
     inkscape:showpageshadow="2"
     inkscape:pageopacity="0.0"
     inkscape:pagecheckerboard="0"
     inkscape:deskcolor="#d1d1d1"
     inkscape:zoom="0.54166667"
     inkscape:cx="767.07692"
     inkscape:cy="514.15384"
     inkscape:window-width="1712"
     inkscape:window-height="1052"
     inkscape:window-x="0"
     inkscape:window-y="0"
     inkscape:window-maximized="0"
     inkscape:current-layer="g1" />
  <g
     inkscape:groupmode="layer"
     inkscape:label="Image"
     id="g1">
    <path
       style="opacity:1;fill:#fdfdfd;fill-opacity:1"
       d="m 344,755.49781 c 0,-15.53254 0,-31.06508 0,-46.59762 16.78638,2.20271 13.77412,11.6885 33.62581,-0.70174 47.81017,-7.35078 48.64016,74.9436 0.61624,68.18626 -25.82618,-17.10836 -20.92571,3.01413 -21.71514,24.21011 -16.85714,8.8344 -12.23066,-12.64431 -12.52691,-24.15295 0,-6.98135 0,-13.96271 0,-20.94406 z m 45.68083,7.50999 c 39.139,-23.20888 -25.413,-70.07554 -32.49992,-23.50794 -3.94078,17.57859 16.9023,32.26742 32.49992,23.50794 z m 62.06509,12.96773 c -43.38734,-8.39382 -26.27413,-80.16693 16.11721,-67.01862 16.51136,11.3404 12.18356,7.22848 21.72569,0.24642 15.15632,9.69862 4.21454,40.46538 6.95944,59.56917 -5.42564,19.60149 -12.86711,-11.72074 -20.13328,3.13301 -7.11149,4.76535 -16.43125,5.39135 -24.66906,4.07002 z m 16.94638,-11.47679 c 43.78082,-18.02786 -16.3049,-73.01055 -28.6422,-27.79723 -4.78915,16.83974 11.65246,34.20887 28.6422,27.79723 z M 628.34383,775.9586 C 587.85026,771.74899 594.26565,703.59564 635,708.5 c 23.50011,-10.18921 51.91025,45.39165 17.87651,37.5 -13.33709,0 -26.67419,0 -40.01129,0 4.66777,35.77633 39.446,5.44127 51.36753,18.23567 -3.37238,11.94577 -25.20275,13.55077 -35.88892,11.72293 z M 656,736.17814 c 0.14242,-40.5548 -69.51736,4.66413 -27.91402,0.82186 9.30659,-0.0734 18.65435,0.29421 27.91402,-0.82186 z m 356.2712,39.34396 c -44.22601,-10.90714 -21.31458,-83.52539 21.4687,-65.60275 25.8963,24.58279 0.5863,-30.29857 18.77,-28.91935 13.9108,-1.04598 2.9929,22.59904 6.3316,32.06645 -0.1138,20.47785 -0.2277,40.9557 -0.3415,61.43355 -18.2202,2.32702 -8.9643,-17.54625 -29.5204,1.22359 l -8.492,0.89791 z m 20.2852,-11.57245 c 47.3568,-29.93808 -39.2796,-71.65234 -30.5856,-15.17267 2.6182,13.81242 18.3499,19.55751 30.5856,15.17267 z m 69.3855,12.04308 c -50.458,-7.34326 -23.62,-89.42996 22.3355,-64.74544 22.4272,9.62313 24.9369,44.73242 -4.1539,34.46134 -9.5236,3.3147 -39.5431,-7.59034 -30.2237,9.07833 7.2463,23.36742 69.455,-7.14392 35.1634,19.08988 -7.3938,2.42602 -15.3718,3.96016 -23.1213,2.11589 z M 1129,735.12212 c -1.0335,-40.52292 -68.2795,6.3809 -27.1702,1.87788 8.6669,-0.88088 19.9619,2.14813 27.1702,-1.87788 z m -599.49716,38.58121 c -19.07031,-10.44365 0.0546,-45.38504 -13.27843,-53.69477 -21.20728,-7.88705 15.26915,-9.22073 4.88894,-28.47526 22.71744,-12.512 2.9935,24.16794 21.50647,18.62592 25.16133,-2.73463 6.31826,15.91556 -9.8984,9.84078 0.30791,21.62113 -2.49297,52.62161 23.74784,44.94056 7.31608,14.27093 -20.51248,11.93886 -26.96642,8.76277 z m 251.49767,1.17322 c -22.34218,-9.14468 -1.76877,-45.75192 -15.43812,-55.00586 -20.64689,-5.52857 5.26058,-8.94943 4.43761,-16.28408 -1.04925,-24.23968 19.86708,-11.05848 13.5,5.91339 24.30901,-4.76449 28.54916,15.21285 1.24881,10.5 -2.67337,12.22423 -8.71653,56.14372 18.84089,42.59735 13.20048,14.01674 -14.95156,14.80741 -22.58919,12.2792 z m -208.52719,-1.08548 c -0.68514,-21.42061 -0.031,-42.86189 0.0267,-64.29107 21.05371,-6.48524 9.60752,19.2383 12.28264,30.47319 -1.63383,10.75359 2.82578,27.33896 -2.41754,34.63806 -3.2373,-0.18869 -7.09771,1.42411 -9.89178,-0.82018 z m 111.13367,-0.37286 c 1.75952,-15.37673 -9.33866,-76.30232 12.33348,-59.66537 3.23225,6.53648 43.98691,-20.42072 50.55953,10.58486 0,16.72077 0,33.44153 0,50.1623 -29.49933,3.1573 6.01529,-74.6488 -41.43471,-51.78346 -19.55324,8.04704 5.2013,60.8135 -21.4583,50.70167 z m 145.01772,0.0462 C 827.57826,755.6692 828.14699,737.82007 828,720 c -14.78769,6.37598 -18.50984,-13.49249 -2.23918,-10.35507 -2.07402,-18.60001 29.30688,-45.29821 39.41311,-21.60569 -17.41723,-5.7599 -38.48261,27.60061 -8.53971,21.94867 20.86627,14.19768 -29.796,1.82173 -15.76906,27.11365 -1.53426,11.83209 2.58178,29.07747 -2.5,37.51084 -3.16219,-0.29803 -7.36972,1.78146 -9.74045,-1.14799 z m 47.86446,-0.7144 c -0.74882,-21.0726 -0.056,-42.16797 0.0108,-63.25001 20.46603,-5.70477 9.34964,20.94915 12.66387,32.6998 -2.87879,10.35567 8.32463,43.44874 -12.6747,30.55021 z m 34.10906,1.40894 C 913.81485,758.30563 899.25558,696.57356 922,714.79684 c 4.19405,0.43564 56.72038,-19.25229 50.6953,19.47018 -3.72875,11.45979 10.23072,50.23342 -12.15892,38.48298 4.20349,-23.04302 -2.26391,-74.01343 -34.65356,-44.82653 -10.61026,11.21714 9.99781,54.21834 -15.28459,46.23548 z m 246.87507,-0.36787 c -0.6851,-21.42062 -0.031,-42.8619 0.027,-64.29108 17.4814,-2.33529 7.663,20.16708 24.4228,0.67271 40.0569,1.89243 -25.3146,14.32525 -11.7549,37.98681 -2.9867,10.20911 7.027,34.11028 -12.6946,25.63156 z M 572.45455,694.54545 c -6.75945,-39.06942 37.17911,9.53266 0,0 z m 304.46853,-0.46853 c -11.03343,-28.0376 35.81269,0.6183 2.7888,2.00339 z M 762.61281,604.58398 C 704.05851,552.50535 650.60297,494.43257 594.34218,439.72156 575.68621,414.51377 514.76177,385.0509 559.80984,355.27901 625.74232,289.91019 690.3952,223.08387 757.98825,159.48398 c 39.20334,-5.96031 60.03122,46.45497 90.28588,66.02448 48.8034,49.3246 100.12612,96.52932 147.04758,147.47784 -4.84507,34.59891 -47.03385,55.05374 -67.89895,83.0022 -49.45092,49.33232 -98.41028,99.18157 -148.72652,147.63087 l -7.89976,1.93212 z M 771,581.4569 c 6.09531,-55.79675 40.32164,-105.00749 87.74666,-134.14104 36.62967,-25.07677 80.35786,-64.37471 68.9014,-113.82902 -2.88385,-16.12534 -31.85981,-52.32107 -14.32602,-15.05577 4.52565,47.84977 -45.77736,70.77478 -77.11963,96.2304 -33.8739,23.62363 -57.79802,59.50546 -66.81688,99.77301 C 759.3823,464.66502 723.34181,425.90995 681.674,399.39859 652.6617,379.27466 611.48774,347.3192 628.87101,307.01045 c 3.30389,-14.38078 -25.52986,27.25026 -19.94448,41.00721 0.945,56.65748 56.33535,87.40872 95.73639,118.39917 37.57941,28.24423 56.65312,73.34961 64.55975,118.2742 l 0.807,-0.27457 z m 36.16538,-52.29905 c 28.63529,-39.52643 91.30009,-48.07561 103.21084,-100.73791 7.50114,-26.65066 -21.18251,22.7675 -33.15919,21.59529 -36.2886,22.67323 -76.74759,52.35013 -81.39855,98.48477 3.39598,-6.6631 6.85316,-13.33066 11.3469,-19.34215 z m -67.12022,7.29545 c -12.14245,-54.98908 -71.5256,-73.69814 -106.87093,-110.21821 -16.36394,-15.33109 6.63351,37.6801 20.5666,43.45455 30.12487,24.53604 70.6669,38.8243 88.04887,76.44125 l -0.37904,-3.24304 z M 801.54707,404.5 c 24.44112,-35.05268 74.79357,-49.08185 87.46419,-92.01489 4.83986,-43.53931 -42.46834,-65.24968 -65.38924,-95.40874 -24.0465,-25.38543 -58.58502,-71.35911 -85.62081,-23.40036 -27.38768,28.84287 -58.81778,54.56207 -82.88284,86.13272 -20.06845,37.03731 22.00917,65.77232 49.13012,82.75769 19.59991,4.9322 64.30333,69.30099 40.88159,21.44184 -13.95178,-40.12358 -8.37528,-93.16695 31.86024,-116.12555 -24.53,28.33536 1.3222,59.54182 24.10715,78.03479 20.06299,17.727 -5.78045,62.44935 -4.5923,64.47715 l 5.0419,-5.89462 z"
       id="path1" />
  </g>
  <g
     inkscape:groupmode="layer"
     id="layer1"
     inkscape:label="Image 1" />
</svg>
