<svg viewBox="0 0 488 489" xmlns="http://www.w3.org/2000/svg">
  <defs>
    <mask id="theme-mark-mask" maskUnits="userSpaceOnUse" x="0" y="0" width="488" height="489">
      <rect width="488" height="489" fill="black" />
      <path
        d="M242.186 29.3834C266.106 23.893 275.896 46.0941 291.186 61.3834C316.08 86.2778 342.964 110.416 368.186 135.383C397.333 164.236 426.033 193.537 455.186 222.383C464.755 231.852 482.379 241.765 477.186 258.383C476.469 260.678 474.878 262.676 473.186 264.383C403.179 335.042 333.326 405.867 262.186 475.383C260.149 477.374 256.978 477.825 254.186 478.383C231.996 482.821 215.612 450.809 202.186 437.383C145.851 381.049 88.685 325.552 32.1857 269.383C24.275 261.519 16.2337 252.189 26.1857 241.383C36.086 230.635 46.5347 220.389 57.1857 210.383C100.219 169.959 144.862 124.707 188.186 81.3834C204.5 65.0694 219.49 34.5927 242.186 29.3834Z"
        fill="white"
      />
      <path
        d="M275.186 286.383C275.186 270.174 292.542 256.358 289.186 235.383C282.587 194.14 228.497 196.762 255.186 143.383C223.815 166.198 214.923 199.857 222.186 237.383C224.131 247.433 236.274 268.12 233.186 277.383C221.836 265.002 211 253.116 197.186 243.383C178.259 230.049 136.104 209.252 131.186 181.383C124.799 145.19 190.202 91.7022 214.186 70.3834C225.065 60.7129 237.882 37.0576 255.186 41.3834C257.518 41.9664 259.47 43.7003 261.186 45.3834C294.168 77.7314 327.135 110.112 359.186 143.383C369.288 153.87 373.35 171.316 371.186 185.383C367.109 211.879 336.68 228.588 318.186 243.383C301.897 256.414 288.587 270.545 275.186 286.383Z"
        fill="black"
      />
      <path
        d="M386.186 170.383C420.675 199.946 416.502 245.537 388.186 278.383C360.92 310.011 321.423 327.061 294.186 358.383C269.76 386.473 258.217 420.196 252.186 456.383C250.686 456.383 250.686 456.383 249.186 456.383C241.597 418.438 228.772 378.969 201.186 351.383C168.44 318.638 122.235 301.19 99.1857 258.383C88.0036 237.617 83.1512 183.062 112.186 173.383C89.3963 241.752 162.76 265.272 204.186 303.383C228.483 325.737 240.856 353.284 250.186 384.383C263.033 350.125 275.169 322.287 303.186 297.383C330.93 272.721 388.895 249.707 394.186 207.383C396.025 192.67 390.535 183.433 386.186 170.383Z"
        fill="black"
      />
      <path
        d="M107.186 289.383C113.968 296.166 118.692 304.139 126.186 310.383C165.111 342.821 216.853 362.39 223.186 419.383C212.758 405.48 205.438 391.347 191.186 380.383C159.215 355.791 107.186 338.236 107.186 289.383Z"
        fill="black"
      />
      <path
        d="M392.186 290.383C395.66 314.704 374.357 337.225 356.186 350.383C324.911 373.03 296.071 384.613 278.186 420.383C278.186 352.622 359.256 336.485 392.186 290.383Z"
        fill="black"
      />
    </mask>
  </defs>
  <rect width="488" height="489" fill="#28608b" mask="url(#theme-mark-mask)" />
</svg>
